<svg xmlns="http://www.w3.org/2000/svg" id="Calque_1" viewBox="0 0 550 80"><defs><style>.st2,.st4,.st10{isolation:isolate}.st2{opacity:.6}.st12{fill:#e81015}.st13{fill:#2151a1}.st14{fill:#fff}.st15{fill:#00fff0}.st16{fill:#e9c91c}.st10,.st18{mix-blend-mode:screen;opacity:.8}</style></defs><g class="st4"><g id="Calque_11" data-name="Calque_1"><path d="M48.5 17.8H30l-13 13v18.4l13 13h18.5l13-13V30.8Z" style="isolation:isolate;opacity:.7;fill:#2979ff"/><path d="M66.9 17.8H48.5l-13.1 13v18.4l13.1 13h18.4l13-13V30.8Z" style="isolation:isolate;opacity:.7;fill:#00c853"/><path d="M85.4 17.8H66.9l-13 13v18.4l13 13h18.5l13-13V30.8Z" style="isolation:isolate;opacity:.7;fill:#00e676"/><path d="M103.8 17.8H85.4l-13.1 13v18.4l13.1 13h18.4l13-13V30.8Z" style="isolation:isolate;opacity:.7;fill:#00e5ff"/><path d="M122.3 17.8h-18.5l-13 13v18.4l13 13h18.5l13-13V30.8Z" style="isolation:isolate;opacity:.7;fill:gold"/><path d="M140.7 17.8h-18.4l-13.1 13v18.4l13.1 13h18.4l13-13V30.8Z" style="fill:#ff9100;isolation:isolate;opacity:.7"/><path d="M159.1 17.8h-18.4l-13 13v18.4l13 13h18.4l13.1-13V30.8Z" style="isolation:isolate;opacity:.7;fill:#ff1744"/><path d="M177.6 17.8h-18.4l-13.1 13v18.4l13.1 13h18.4l13-13V30.8Z" style="isolation:isolate;opacity:.7;fill:#d400f8"/><g class="st10"><g class="st4"><path d="m247 58 5.1-32h9.5l-5.1 32Zm10.6-37.1c-1.3 0-2.4-.4-3.3-1.3s-1.3-2-1.3-3.3.3-2.1.9-3.1 1.4-1.7 2.4-2.3 2-.9 3.1-.9 2.5.4 3.3 1.3c.9.9 1.3 2 1.3 3.3s-.3 2.1-.9 3.1-1.4 1.8-2.4 2.4-2 .9-3.1.9ZM270.9 58h-9.5l5.1-32h9v3.5c1.5-1.6 2.9-2.8 4.3-3.5s3.1-1 5-1 4.5.6 6.2 1.8q2.55 1.8 3.9 4.8c1.35 3 1.1 4.3.7 6.7L292.5 58H283l2.8-17.4c.3-2.1 0-3.8-.8-5.1-.9-1.3-2.3-1.9-4.2-1.9s-3.4.6-4.6 1.8-2 2.9-2.3 5.2l-2.8 17.5h-.2ZM312.4 58.8c-3.2 0-5.9-.6-8.1-1.7s-3.9-2.8-5.1-4.9-1.8-4.7-1.8-7.7.8-7 2.4-9.9 3.8-5.2 6.5-6.9c2.8-1.7 5.9-2.5 9.3-2.5s6.1.7 8.4 2.1c2.2 1.4 3.8 3.3 4.8 5.9 1 2.5 1.2 5.5.6 8.9l-.4 2.5h-27.1l1-5.8h17.5c.3-1.7 0-3.1-1-4.2-1-1-2.5-1.6-4.4-1.6s-3.1.5-4.4 1.4-2.3 2.3-3.1 3.9c-.7 1.6-1.1 3.5-1.1 5.5s.5 4.2 1.6 5.4c1 1.2 2.7 1.8 4.8 1.8s2.8-.3 3.9-1c1.1-.6 2-1.6 2.6-2.8h9.3c-.7 2.3-1.9 4.3-3.5 6-1.6 1.8-3.5 3.1-5.8 4.1-2.2 1-4.6 1.4-7.1 1.4h.2Z" class="st13"/></g></g><g class="st10"><g class="st4"><path d="m247.8 57.5 5.1-32h9.5l-5.1 32Zm10.5-37.2c-1.3 0-2.4-.4-3.3-1.3s-1.3-2-1.3-3.3.3-2.1.9-3.1 1.4-1.7 2.4-2.3 2-.9 3.1-.9 2.5.4 3.3 1.3c.9.9 1.3 2 1.3 3.3s-.3 2.1-.9 3.1-1.4 1.8-2.4 2.4-2 .9-3.1.9ZM271.6 57.5h-9.5l5.1-32h9V29c1.5-1.6 2.9-2.8 4.3-3.5s3.1-1 5-1 4.5.6 6.2 1.8q2.55 1.8 3.9 4.8c1.35 3 1.1 4.3.7 6.7l-3.1 19.7h-9.5l2.8-17.4c.3-2.1 0-3.8-.8-5.1-.9-1.3-2.3-1.9-4.2-1.9s-3.4.6-4.6 1.8-2 2.9-2.3 5.2l-2.8 17.5h-.2ZM313.2 58.2c-3.2 0-5.9-.6-8.1-1.7s-3.9-2.8-5.1-4.9-1.8-4.7-1.8-7.7.8-7 2.4-9.9 3.8-5.2 6.5-6.9c2.8-1.7 5.9-2.5 9.3-2.5s6.1.7 8.4 2.1c2.2 1.4 3.8 3.3 4.8 5.9 1 2.5 1.2 5.5.6 8.9l-.4 2.5h-27.1l1-5.8h17.5c.3-1.7 0-3.1-1-4.2-1-1-2.5-1.6-4.4-1.6s-3.1.5-4.4 1.4-2.3 2.3-3.1 3.9c-.7 1.6-1.1 3.5-1.1 5.5s.5 4.2 1.6 5.4c1 1.2 2.7 1.8 4.8 1.8s2.8-.3 3.9-1c1.1-.6 2-1.6 2.6-2.8h9.3c-.7 2.3-1.9 4.3-3.5 6-1.6 1.8-3.5 3.1-5.8 4.1-2.2 1-4.6 1.4-7.1 1.4h.2Z" class="st15"/></g></g><g class="st10"><g class="st4"><path d="m249.9 55.7 5.1-32h9.5l-5.1 32Zm10.6-37.1c-1.3 0-2.4-.4-3.3-1.3s-1.3-2-1.3-3.3.3-2.1.9-3.1 1.4-1.7 2.4-2.3 2-.9 3.1-.9 2.5.4 3.3 1.3c.9.9 1.3 2 1.3 3.3s-.3 2.1-.9 3.1-1.4 1.8-2.4 2.4-2 .9-3.1.9ZM273.8 55.7h-9.5l5.1-32h9v3.5c1.5-1.6 2.9-2.8 4.3-3.5s3.1-1 5-1 4.5.6 6.2 1.8q2.55 1.8 3.9 4.8c1.35 3 1.1 4.3.7 6.7l-3.1 19.7h-9.5l2.8-17.4c.3-2.1 0-3.8-.8-5.1-.9-1.3-2.3-1.9-4.2-1.9s-3.4.6-4.6 1.8-2 2.9-2.3 5.2L274 55.8h-.2ZM315.3 56.5c-3.2 0-5.9-.6-8.1-1.7s-3.9-2.8-5.1-4.9-1.8-4.7-1.8-7.7.8-7 2.4-9.9 3.8-5.2 6.5-6.9c2.8-1.7 5.9-2.5 9.3-2.5s6.1.7 8.4 2.1c2.2 1.4 3.8 3.3 4.8 5.9 1 2.5 1.2 5.5.6 8.9l-.4 2.5h-27.1l1-5.8h17.5c.3-1.7 0-3.1-1-4.2-1-1-2.5-1.6-4.4-1.6s-3.1.5-4.4 1.4-2.3 2.3-3.1 3.9c-.7 1.6-1.1 3.5-1.1 5.5s.5 4.2 1.6 5.4c1 1.2 2.7 1.8 4.8 1.8s2.8-.3 3.9-1c1.1-.6 2-1.6 2.6-2.8h9.3c-.7 2.3-1.9 4.3-3.5 6-1.6 1.8-3.5 3.1-5.8 4.1-2.2 1-4.6 1.4-7.1 1.4h.2Z" class="st12"/></g></g><g class="st10"><g class="st4"><path d="m249.3 56.4 5.1-32h9.5l-5.1 32Zm10.6-37.1c-1.3 0-2.4-.4-3.3-1.3s-1.3-2-1.3-3.3.3-2.1.9-3.1 1.4-1.7 2.4-2.3 2-.9 3.1-.9 2.5.4 3.3 1.3c.9.9 1.3 2 1.3 3.3s-.3 2.1-.9 3.1-1.4 1.8-2.4 2.4-2 .9-3.1.9ZM273.2 56.4h-9.5l5.1-32h9v3.5c1.5-1.6 2.9-2.8 4.3-3.5s3.1-1 5-1 4.5.6 6.2 1.8q2.55 1.8 3.9 4.8c1.35 3 1.1 4.3.7 6.7l-3.1 19.7h-9.5l2.8-17.4c.3-2.1 0-3.8-.8-5.1-.9-1.3-2.3-1.9-4.2-1.9s-3.4.6-4.6 1.8-2 2.9-2.3 5.2l-2.8 17.5h-.2ZM314.7 57.2c-3.2 0-5.9-.6-8.1-1.7s-3.9-2.8-5.1-4.9-1.8-4.7-1.8-7.7.8-7 2.4-9.9 3.8-5.2 6.5-6.9c2.8-1.7 5.9-2.5 9.3-2.5s6.1.7 8.4 2.1c2.2 1.4 3.8 3.3 4.8 5.9 1 2.5 1.2 5.5.6 8.9l-.4 2.5h-27.1l1-5.8h17.5c.3-1.7 0-3.1-1-4.2-1-1-2.5-1.6-4.4-1.6s-3.1.5-4.4 1.4-2.3 2.3-3.1 3.9c-.7 1.6-1.1 3.5-1.1 5.5s.5 4.2 1.6 5.4c1 1.2 2.7 1.8 4.8 1.8s2.8-.3 3.9-1c1.1-.6 2-1.6 2.6-2.8h9.3c-.7 2.3-1.9 4.3-3.5 6-1.6 1.8-3.5 3.1-5.8 4.1-2.2 1-4.6 1.4-7.1 1.4h.2Z" class="st16"/></g></g><g class="st18"><path d="M229.1 58.9c-3.5 0-6.6-.8-9.4-2.4s-5-3.8-6.7-6.6c-1.6-2.8-2.5-5.9-2.5-9.3s.8-6.6 2.4-9.3c1.6-2.8 3.8-4.9 6.7-6.5 2.8-1.6 6-2.4 9.5-2.4s5 .4 7.2 1.3 4.1 2.1 5.7 3.7 2.7 3.5 3.4 5.7l-8.3 3.6q-.9-2.55-3-4.2c-1.4-1-3.1-1.5-5-1.5s-3.1.4-4.4 1.2-2.3 1.9-3.1 3.4c-.7 1.5-1.1 3.1-1.1 5s.4 3.5 1.1 5 1.8 2.6 3.1 3.4 2.8 1.2 4.4 1.2 3.6-.5 5-1.5 2.4-2.4 3-4.2l8.3 3.6c-.6 2-1.8 3.9-3.3 5.5-1.6 1.6-3.5 2.9-5.7 3.8s-4.7 1.4-7.3 1.4Z" class="st13"/></g><g class="st18"><path d="M229.9 58.3c-3.5 0-6.6-.8-9.4-2.4s-5-3.8-6.7-6.6c-1.6-2.8-2.5-5.9-2.5-9.3s.8-6.6 2.4-9.3c1.6-2.8 3.8-4.9 6.7-6.5 2.8-1.6 6-2.4 9.5-2.4s5 .4 7.2 1.3 4.1 2.1 5.7 3.7 2.7 3.5 3.4 5.7l-8.3 3.6q-.9-2.55-3-4.2c-1.4-1-3.1-1.5-5-1.5s-3.1.4-4.4 1.2-2.3 1.9-3.1 3.4c-.7 1.5-1.1 3.1-1.1 5s.4 3.5 1.1 5 1.8 2.6 3.1 3.4 2.8 1.2 4.4 1.2 3.6-.5 5-1.5 2.4-2.4 3-4.2l8.3 3.6c-.6 2-1.8 3.9-3.3 5.5-1.6 1.6-3.5 2.9-5.7 3.8s-4.7 1.4-7.3 1.4Z" class="st15"/></g><g class="st18"><path d="M231.9 56.6c-3.5 0-6.6-.8-9.4-2.4s-5-3.8-6.7-6.6c-1.6-2.8-2.5-5.9-2.5-9.3s.8-6.6 2.4-9.3c1.6-2.8 3.8-4.9 6.7-6.5 2.8-1.6 6-2.4 9.5-2.4s5 .4 7.2 1.3 4.1 2.1 5.7 3.7 2.7 3.5 3.4 5.7l-8.3 3.6q-.9-2.55-3-4.2c-1.4-1-3.1-1.5-5-1.5s-3.1.4-4.4 1.2-2.3 1.9-3.1 3.4c-.7 1.5-1.1 3.1-1.1 5s.4 3.5 1.1 5 1.8 2.6 3.1 3.4 2.8 1.2 4.4 1.2 3.6-.5 5-1.5 2.4-2.4 3-4.2l8.3 3.6c-.6 2-1.8 3.9-3.3 5.5-1.6 1.6-3.5 2.9-5.7 3.8s-4.7 1.4-7.3 1.4Z" class="st12"/></g><g class="st18"><path d="M231.3 57.4c-3.5 0-6.6-.8-9.4-2.4s-5-3.8-6.7-6.6c-1.6-2.8-2.5-5.9-2.5-9.3s.8-6.6 2.4-9.3c1.6-2.8 3.8-4.9 6.7-6.5 2.8-1.6 6-2.4 9.5-2.4s5 .4 7.2 1.3 4.1 2.1 5.7 3.7 2.7 3.5 3.4 5.7l-8.3 3.6q-.9-2.55-3-4.2c-1.4-1-3.1-1.5-5-1.5s-3.1.4-4.4 1.2-2.3 1.9-3.1 3.4c-.7 1.5-1.1 3.1-1.1 5s.4 3.5 1.1 5 1.8 2.6 3.1 3.4 2.8 1.2 4.4 1.2 3.6-.5 5-1.5 2.4-2.4 3-4.2l8.3 3.6c-.6 2-1.8 3.9-3.3 5.5-1.6 1.6-3.5 2.9-5.7 3.8s-4.7 1.4-7.3 1.4Z" class="st16"/></g><g class="st4"><g class="st2"><path d="M230.7 57.8c-3.5 0-6.6-.8-9.4-2.4s-5-3.8-6.7-6.6c-1.6-2.8-2.5-5.9-2.5-9.3s.8-6.6 2.4-9.3c1.6-2.8 3.8-4.9 6.7-6.5 2.8-1.6 6-2.4 9.5-2.4s5 .4 7.2 1.3 4.1 2.1 5.7 3.7 2.7 3.5 3.4 5.7l-8.3 3.6q-.9-2.55-3-4.2c-1.4-1-3.1-1.5-5-1.5s-3.1.4-4.4 1.2-2.3 1.9-3.1 3.4c-.7 1.5-1.1 3.1-1.1 5s.4 3.5 1.1 5 1.8 2.6 3.1 3.4 2.8 1.2 4.4 1.2 3.6-.5 5-1.5 2.4-2.4 3-4.2L247 47c-.6 2-1.8 3.9-3.3 5.5-1.6 1.6-3.5 2.9-5.7 3.8s-4.7 1.4-7.3 1.4Z" class="st14"/></g><g class="st2"><path d="m248.4 56.9 5.1-32h9.5l-5.1 32Zm10.5-37.1c-1.3 0-2.4-.4-3.3-1.3s-1.3-2-1.3-3.3.3-2.1.9-3.1 1.4-1.7 2.4-2.3 2-.9 3.1-.9 2.5.4 3.3 1.3c.9.9 1.3 2 1.3 3.3s-.3 2.1-.9 3.1-1.4 1.8-2.4 2.4-2 .9-3.1.9ZM272.2 56.9h-9.5l5.1-32h9v3.5c1.5-1.6 2.9-2.8 4.3-3.5s3.1-1 5-1 4.5.6 6.2 1.8 3.1 2.8 3.9 4.8c.9 2 1.1 4.3.7 6.7l-3.1 19.7h-9.5l2.8-17.4c.3-2.1 0-3.8-.8-5.1-.9-1.3-2.3-1.9-4.2-1.9s-3.4.6-4.6 1.8-2 2.9-2.3 5.2L272.4 57h-.2ZM313.8 57.7c-3.2 0-5.9-.6-8.1-1.7s-3.9-2.8-5.1-4.9-1.8-4.7-1.8-7.7.8-7 2.4-9.9 3.8-5.2 6.5-6.9c2.8-1.7 5.9-2.5 9.3-2.5s6.1.7 8.4 2.1c2.2 1.4 3.9 3.3 4.8 5.9 1 2.5 1.2 5.5.6 8.9l-.4 2.5h-27.1l1-5.8h17.5c.3-1.7 0-3.1-1-4.2-1-1-2.5-1.6-4.4-1.6s-3.1.5-4.4 1.4c-1.3 1-2.3 2.3-3.1 3.9-.7 1.6-1.1 3.5-1.1 5.5s.5 4.2 1.6 5.4c1 1.2 2.7 1.8 4.8 1.8s2.8-.3 3.9-1 2-1.6 2.6-2.8h9.3c-.7 2.3-1.9 4.3-3.5 6-1.6 1.8-3.5 3.1-5.8 4.1-2.2 1-4.6 1.4-7.1 1.4h.2Z" class="st14"/></g><g class="st4"><path d="M358.2 30.6h-22v-6.8h22Zm-4.6 27.7c-1.9 0-3.5-.2-4.8-.7s-2.4-1.1-3.3-1.8c-.9-.8-1.5-1.6-2-2.6s-.9-2-1.1-3c-.2-1.1-.3-2.1-.3-3.1V15.3h8.6v31.6c0 1.5.4 2.6 1.2 3.4s2.1 1.2 3.8 1.2 2 0 3.3-.3v6.7q-3.3.6-5.4.6ZM370.7 57.7h-8.5V23.8h8.5v4.7h.3c.4-.9 1-1.7 1.7-2.6.7-.8 1.7-1.5 2.9-2s2.7-.8 4.5-.8 1.8.1 3 .3v8.3q-1.95-.3-3.3-.3-2.25 0-3.9.6c-1.1.4-2.1 1-2.9 1.9s-1.4 1.9-1.7 3.3c-.4 1.3-.5 2.9-.5 4.8v15.7ZM400.1 58.3c-2.9 0-5.4-.5-7.5-1.4q-3.3-1.5-5.4-3.9c-1.5-1.6-2.6-3.5-3.4-5.6s-1.2-4.3-1.2-6.6.4-4.6 1.2-6.7 1.9-4 3.4-5.6 3.3-2.9 5.4-3.9c2.2-1 4.7-1.4 7.5-1.4s5.2.5 7.4 1.4c2.2 1 4 2.3 5.5 3.9s2.6 3.5 3.4 5.6c.7 2.1 1.1 4.3 1.1 6.7s-.4 4.5-1.1 6.6-1.9 4-3.4 5.6-3.3 2.9-5.5 3.9-4.6 1.4-7.4 1.4m0-7q2.85 0 4.8-1.5c1.95-1.5 2.3-2.3 3-3.9s1-3.3 1-5.2-.3-3.6-1-5.2q-1.05-2.4-3-3.9t-4.8-1.5c-2.85 0-3.5.5-4.8 1.5s-2.4 2.3-3 3.9c-.7 1.6-1 3.3-1 5.2s.3 3.6 1 5.2q1.05 2.4 3 3.9c1.95 1.5 3 1.5 4.8 1.5M429.9 70.2h-8.5V23.8h8.5v4.7h.4c.3-.3.6-.8 1.1-1.4s1.1-1.2 2-1.8c.8-.6 1.9-1.1 3.1-1.5s2.6-.6 4.2-.6q3.75 0 6.6 1.5c2.85 1.5 3.5 2.3 4.7 4s2.2 3.6 2.8 5.7.9 4.2.9 6.4-.3 4.3-.9 6.4-1.5 4-2.8 5.7c-1.2 1.7-2.8 3-4.7 4s-4.1 1.5-6.6 1.5-3-.2-4.2-.6-2.2-.9-3.1-1.5-1.5-1.2-2-1.8-.8-1.1-1.1-1.4h-.4v17.2Zm-.1-29.5c0 1.7.3 3.4 1 5s1.6 3 2.9 4 2.9 1.6 4.8 1.6 3.6-.5 4.9-1.6c1.3-1 2.2-2.4 2.9-4 .6-1.6 1-3.3 1-5s-.3-3.4-1-5.1c-.6-1.6-1.6-3-2.9-4s-2.9-1.6-4.9-1.6-3.5.5-4.8 1.6c-1.3 1-2.2 2.4-2.9 4-.6 1.6-1 3.3-1 5.1M475.4 58.3c-2.9 0-5.4-.5-7.6-1.5s-3.9-2.3-5.3-4-2.4-3.6-3.1-5.7-1-4.2-1-6.4.3-4.2 1-6.3 1.7-4 3-5.7c1.4-1.7 3.1-3.1 5.2-4.1s4.5-1.5 7.4-1.5 5.8.7 8.2 2c2.3 1.4 4.1 3.4 5.5 6 1.3 2.6 2 5.9 2 9.8V43h-23.6c0 1.6.5 3 1.2 4.3s1.6 2.3 2.8 3.1 2.7 1.2 4.3 1.2 2.6-.2 3.6-.7 1.7-1 2.2-1.6 1-1.4 1.3-2.4h7.9c-.4 1.6-.9 2.9-1.5 4s-1.4 2.2-2.5 3.4-2.6 2.1-4.4 2.9-4 1.2-6.7 1.2h.1Zm-8.3-20.8h15.4c0-1.7-.5-3.2-1.2-4.4s-1.6-2-2.7-2.6-2.3-.8-3.6-.8c-2.1 0-3.9.7-5.4 2-1.5 1.4-2.3 3.3-2.5 5.8M507.9 58.3c-2.7 0-5-.4-6.8-1.2s-3.2-1.7-4.3-2.8q-1.65-1.65-2.4-3.3c-.75-1.65-.9-2.4-1.2-3.9h8.1c.2.6.4 1.2.6 1.6.3.4.6.9 1.1 1.4s1.2.9 2 1.2c.9.3 1.9.4 3.1.4s2.2-.2 3-.5c.8-.4 1.3-.8 1.7-1.4s.5-1.2.5-1.9c0-1-.4-1.7-1.1-2.3-.7-.5-1.8-1-3.1-1.3l-4.7-1c-1.8-.4-3.6-.9-5.2-1.7-1.6-.7-3-1.8-4-3.1s-1.5-3-1.5-5 .5-3.9 1.6-5.4c1-1.6 2.5-2.8 4.4-3.7s4.2-1.3 6.8-1.3 4.7.4 6.3 1.1 3 1.6 4 2.6 1.7 2 2.2 3 .9 2.2 1.2 3.6h-7.8c-.3-.8-.6-1.5-1-2s-1-1-1.8-1.4-1.8-.6-3.2-.6-3.1.4-3.8 1.2-1.1 1.6-1.1 2.4.4 1.7 1.2 2.2 1.8.9 3.1 1.2l4.5 1c3.1.7 5.7 1.8 7.7 3.4s3 3.8 3 6.8-.5 3.8-1.6 5.5c-1 1.7-2.6 3-4.5 3.9-2 .9-4.4 1.4-7.3 1.4h.3Z" class="st14"/></g></g></g></g></svg>